<svg width="20" height="21" viewBox="0 0 20 21" fill="none" xmlns="http://www.w3.org/2000/svg">
<path d="M10.0001 6.20736V17.874M10.0001 6.20736C10.0001 5.3233 9.64889 4.47546 9.02377 3.85033C8.39865 3.22521 7.5508 2.87402 6.66675 2.87402H2.50008C2.27907 2.87402 2.06711 2.96182 1.91083 3.1181C1.75455 3.27438 1.66675 3.48634 1.66675 3.70736V14.5407C1.66675 14.7617 1.75455 14.9737 1.91083 15.1299C2.06711 15.2862 2.27907 15.374 2.50008 15.374H7.50008C8.16312 15.374 8.79901 15.6374 9.26785 16.1063C9.73669 16.5751 10.0001 17.211 10.0001 17.874M10.0001 6.20736C10.0001 5.3233 10.3513 4.47546 10.9764 3.85033C11.6015 3.22521 12.4494 2.87402 13.3334 2.87402H17.5001C17.7211 2.87402 17.9331 2.96182 18.0893 3.1181C18.2456 3.27438 18.3334 3.48634 18.3334 3.70736V14.5407C18.3334 14.7617 18.2456 14.9737 18.0893 15.1299C17.9331 15.2862 17.7211 15.374 17.5001 15.374H12.5001C11.837 15.374 11.2012 15.6374 10.7323 16.1063C10.2635 16.5751 10.0001 17.211 10.0001 17.874" stroke="white" stroke-width="2" stroke-linecap="round" stroke-linejoin="round"/>
</svg>
