<svg width="20" height="20" viewBox="0 0 20 20" fill="none" xmlns="http://www.w3.org/2000/svg">
<g clip-path="url(#clip0_69_3475)">
<path d="M15.7001 10.2087L17.1334 8.78366H17.1167C17.8839 7.98869 18.3043 6.92177 18.2856 5.81714C18.2668 4.71251 17.8105 3.66047 17.0167 2.89199C16.2392 2.14215 15.2011 1.72315 14.1209 1.72315C13.0407 1.72315 12.0026 2.14215 11.2251 2.89199L9.79175 4.31699M4.30841 9.79199L2.88341 11.217C2.11622 12.012 1.69585 13.0789 1.7146 14.1835C1.73335 15.2881 2.18969 16.3402 2.98341 17.1087C3.76096 17.8585 4.79905 18.2775 5.87925 18.2775C6.95945 18.2775 7.99754 17.8585 8.77508 17.1087L10.2001 15.6837M6.66675 1.66699V4.16699M1.66675 6.66699H4.16675M13.3334 15.8337V18.3337M15.8334 13.3337H18.3334" stroke="white" stroke-width="2" stroke-linecap="round" stroke-linejoin="round"/>
</g>
<defs>
<clipPath id="clip0_69_3475">
<rect width="20" height="20" fill="white"/>
</clipPath>
</defs>
</svg>
